name rise31.4854peak64.571fall78.6902.mot
datacolumns 19
datarows 35
range 24.06658000000000 24.12323900000000
endheader
time	ground_force1_vx	ground_force1_vy	ground_force1_vz	ground_force1_px	ground_force1_py	ground_force1_pz	ground_force2_vx	ground_force2_vy	ground_force2_vz	ground_force2_px	ground_force2_py	ground_force2_pz	ground_torque1_x	ground_torque1_y	ground_torque1_z	ground_torque2_x	ground_torque2_y	ground_torque2_z	
24.06658000000000	-43.28819300000000	785.71159499999999	59.05410500000000	0.11973600000000	0.00000000000000	0.09174100000000	-10.11465700000000	53.87821500000000	8.63225200000000	0.33093000000000	0.00000000000000	-0.10724500000000	0.00000000000000	23.83006300000000	0.00000000000000	0.00000000000000	4.00071400000000	0.00000000000000	
24.06824200000000	-43.24557200000000	782.87859400000002	58.81395700000000	0.11925900000000	0.00000000000000	0.09168500000000	-10.72964300000000	60.46925800000000	9.40379600000000	0.33722600000000	0.00000000000000	-0.10761500000000	0.00000000000000	23.65872600000000	0.00000000000000	0.00000000000000	4.50416100000000	0.00000000000000	
24.06991000000000	-43.19845900000000	779.91281200000003	58.54691300000000	0.11880500000000	0.00000000000000	0.09162300000000	-11.17265500000000	66.90693700000000	10.08195400000000	0.34307700000000	0.00000000000000	-0.10795700000000	0.00000000000000	23.48313800000000	0.00000000000000	0.00000000000000	4.98772600000000	0.00000000000000	
24.07158100000000	-43.14783100000000	776.81521399999997	58.25269300000000	0.11837400000000	0.00000000000000	0.09155600000000	-11.43800400000000	73.15044100000000	10.65979200000000	0.34853000000000	0.00000000000000	-0.10827800000000	0.00000000000000	23.30351900000000	0.00000000000000	0.00000000000000	5.44532900000000	0.00000000000000	
24.07324200000000	-43.09467600000000	773.58687299999997	57.93107700000000	0.11796600000000	0.00000000000000	0.09148200000000	-11.52782700000000	79.18470100000000	11.13578100000000	0.35362100000000	0.00000000000000	-0.10858000000000	0.00000000000000	23.12009000000000	0.00000000000000	0.00000000000000	5.87314200000000	0.00000000000000	
24.07490800000000	-43.03999000000000	770.22895900000003	57.58189700000000	0.11758000000000	0.00000000000000	0.09140300000000	-11.45082400000000	85.01773000000000	11.51306100000000	0.35838100000000	0.00000000000000	-0.10886700000000	0.00000000000000	22.93307100000000	0.00000000000000	0.00000000000000	6.26946600000000	0.00000000000000	
24.07657700000000	-42.98477300000000	766.74273400000004	57.20504400000000	0.11721700000000	0.00000000000000	0.09131800000000	-11.22068600000000	90.67653600000000	11.79845200000000	0.36283700000000	0.00000000000000	-0.10914200000000	0.00000000000000	22.74268400000000	0.00000000000000	0.00000000000000	6.63444700000000	0.00000000000000	
24.07824500000000	-42.93002100000000	763.12953800000003	56.80046700000000	0.11687500000000	0.00000000000000	0.09122700000000	-10.85438300000000	96.20216600000001	12.00133300000000	0.36701400000000	0.00000000000000	-0.10940600000000	0.00000000000000	22.54914900000000	0.00000000000000	0.00000000000000	6.96969000000000	0.00000000000000	
24.07990800000000	-42.87672400000000	759.39077999999995	56.36817400000000	0.11655400000000	0.00000000000000	0.09112900000000	-10.37047700000000	101.64447400000000	12.13250800000000	0.37092900000000	0.00000000000000	-0.10966300000000	0.00000000000000	22.35268400000000	0.00000000000000	0.00000000000000	7.27781300000000	0.00000000000000	
24.08157500000000	-42.82586200000000	755.52792699999998	55.90823100000000	0.11625400000000	0.00000000000000	0.09102600000000	-9.78759600000000	107.05706600000001	12.20314500000000	0.37460100000000	0.00000000000000	-0.10991200000000	0.00000000000000	22.15350600000000	0.00000000000000	0.00000000000000	7.56200100000000	0.00000000000000	
24.08324700000000	-42.77839300000000	751.54250000000002	55.42076500000000	0.11597300000000	0.00000000000000	0.09091700000000	-9.12317000000000	112.49280299999999	12.22388100000000	0.37804400000000	0.00000000000000	-0.11015700000000	0.00000000000000	21.95182700000000	0.00000000000000	0.00000000000000	7.82558500000000	0.00000000000000	
24.08491400000000	-42.73525700000000	747.43605300000002	54.90596100000000	0.11571100000000	0.00000000000000	0.09080100000000	-8.39246800000000	118.00011400000000	12.20410800000000	0.38127300000000	0.00000000000000	-0.11039800000000	0.00000000000000	21.74785900000000	0.00000000000000	0.00000000000000	8.07168500000000	0.00000000000000	
24.08657700000000	-42.69736300000000	743.21017400000005	54.36406700000000	0.11546600000000	0.00000000000000	0.09068000000000	-7.60797100000000	123.62026600000000	12.15148500000000	0.38429800000000	0.00000000000000	-0.11063600000000	0.00000000000000	21.54180600000000	0.00000000000000	0.00000000000000	8.30293300000000	0.00000000000000	
24.08824200000000	-42.66558700000000	738.86646900000005	53.79538600000000	0.11523900000000	0.00000000000000	0.09055300000000	-6.77906300000000	129.38562800000000	12.07166600000000	0.38713000000000	0.00000000000000	-0.11087200000000	0.00000000000000	21.33387000000000	0.00000000000000	0.00000000000000	8.52128800000000	0.00000000000000	
24.08991200000000	-42.64076300000000	734.40655300000003	53.20028200000000	0.11502600000000	0.00000000000000	0.09041900000000	-5.91201300000000	135.31888400000000	11.96822400000000	0.38977800000000	0.00000000000000	-0.11110700000000	0.00000000000000	21.12424800000000	0.00000000000000	0.00000000000000	8.72793200000000	0.00000000000000	
24.09157300000000	-42.62368300000000	729.83203900000001	52.57917800000000	0.11482800000000	0.00000000000000	0.09028000000000	-5.01018500000000	141.43307799999999	11.84274500000000	0.39225100000000	0.00000000000000	-0.11134100000000	0.00000000000000	20.91312900000000	0.00000000000000	0.00000000000000	8.92325500000000	0.00000000000000	
24.09324700000000	-42.61508600000000	725.14453500000002	51.93255300000000	0.11464300000000	0.00000000000000	0.09013500000000	-4.07443900000000	147.73233999999999	11.69505700000000	0.39455600000000	0.00000000000000	-0.11157600000000	0.00000000000000	20.70070100000000	0.00000000000000	0.00000000000000	9.10690200000000	0.00000000000000	
24.09490800000000	-42.61565400000000	720.34562500000004	51.26094400000000	0.11446900000000	0.00000000000000	0.08998500000000	-3.10363100000000	154.21311000000000	11.52354400000000	0.39670000000000	0.00000000000000	-0.11181000000000	0.00000000000000	20.48714100000000	0.00000000000000	0.00000000000000	9.27788000000000	0.00000000000000	
24.09657900000000	-42.62600900000000	715.43687100000000	50.56494200000000	0.11430400000000	0.00000000000000	0.08982900000000	-2.09518600000000	160.86567500000001	11.32551800000000	0.39869000000000	0.00000000000000	-0.11204600000000	0.00000000000000	20.27262200000000	0.00000000000000	0.00000000000000	9.43469100000000	0.00000000000000	
24.09824300000000	-42.64670400000000	710.41979500000002	49.84519200000000	0.11414900000000	0.00000000000000	0.08966700000000	-1.04566100000000	167.67585099999999	11.09759600000000	0.40053200000000	0.00000000000000	-0.11228300000000	0.00000000000000	20.05731100000000	0.00000000000000	0.00000000000000	9.57548800000000	0.00000000000000	
24.09990900000000	-42.67822000000000	705.29588000000001	49.10239300000000	0.11400000000000	0.00000000000000	0.08950000000000	0.04872400000000	174.62665600000000	10.83607000000000	0.40223000000000	0.00000000000000	-0.11252100000000	0.00000000000000	19.84136700000000	0.00000000000000	0.00000000000000	9.69823500000000	0.00000000000000	
24.10157300000000	-42.72096200000000	700.06655499999999	48.33729300000000	0.11385600000000	0.00000000000000	0.08932800000000	1.19162200000000	181.69984900000000	10.53723000000000	0.40379100000000	0.00000000000000	-0.11276100000000	0.00000000000000	19.62494100000000	0.00000000000000	0.00000000000000	9.80085900000000	0.00000000000000	
24.10324400000000	-42.77525100000000	694.73319700000002	47.55069000000000	0.11371500000000	0.00000000000000	0.08915100000000	2.38619700000000	188.87725499999999	10.19763500000000	0.40521800000000	0.00000000000000	-0.11300300000000	0.00000000000000	19.40818000000000	0.00000000000000	0.00000000000000	9.88137600000000	0.00000000000000	
24.10491300000000	-42.84132600000000	689.29711899999995	46.74342800000000	0.11357600000000	0.00000000000000	0.08896900000000	3.63485400000000	196.14181300000001	9.81432000000000	0.40651700000000	0.00000000000000	-0.11324600000000	0.00000000000000	19.19121900000000	0.00000000000000	0.00000000000000	9.93799700000000	0.00000000000000	
24.10657900000000	-42.91933400000000	683.75957100000005	45.91639900000000	0.11343700000000	0.00000000000000	0.08878300000000	4.93907100000000	203.47832600000001	9.38493000000000	0.40769100000000	0.00000000000000	-0.11349100000000	0.00000000000000	18.97419000000000	0.00000000000000	0.00000000000000	9.96920800000000	0.00000000000000	
24.10824800000000	-43.00932700000000	678.12173199999995	45.07053300000000	0.11329500000000	0.00000000000000	0.08859200000000	6.29933100000000	210.87392299999999	8.90779800000000	0.40874500000000	0.00000000000000	-0.11373800000000	0.00000000000000	18.75721500000000	0.00000000000000	0.00000000000000	9.97381500000000	0.00000000000000	
24.10991100000000	-43.11126700000000	672.38471400000003	44.20680400000000	0.11315000000000	0.00000000000000	0.08839700000000	7.71512900000000	218.31824700000001	8.38195900000000	0.40968200000000	0.00000000000000	-0.11398700000000	0.00000000000000	18.54041000000000	0.00000000000000	0.00000000000000	9.95096900000000	0.00000000000000	
24.11158000000000	-43.22501100000000	666.54955800000005	43.32622200000000	0.11299900000000	0.00000000000000	0.08819900000000	9.18504400000000	225.80341700000000	7.80712300000000	0.41050700000000	0.00000000000000	-0.11423800000000	0.00000000000000	18.32388000000000	0.00000000000000	0.00000000000000	9.90016200000000	0.00000000000000	
24.11324400000000	-43.35032100000000	660.61723700000005	42.42983300000000	0.11284100000000	0.00000000000000	0.08799600000000	10.70686200000000	233.32380699999999	7.18360800000000	0.41122300000000	0.00000000000000	-0.11449100000000	0.00000000000000	18.10772500000000	0.00000000000000	0.00000000000000	9.82121000000000	0.00000000000000	
24.11491000000000	-43.48685500000000	654.58865500000002	41.51871400000000	0.11267300000000	0.00000000000000	0.08779000000000	12.27772100000000	240.87570199999999	6.51225500000000	0.41183400000000	0.00000000000000	-0.11474500000000	0.00000000000000	17.89203800000000	0.00000000000000	0.00000000000000	9.71421700000000	0.00000000000000	
24.11657700000000	-43.63417000000000	648.46465899999998	40.59397500000000	0.11249500000000	0.00000000000000	0.08758100000000	13.89427900000000	248.45688100000001	5.79432600000000	0.41234200000000	0.00000000000000	-0.11500100000000	0.00000000000000	17.67690100000000	0.00000000000000	0.00000000000000	9.57953700000000	0.00000000000000	
24.11824000000000	-43.79171700000000	642.24603400000001	39.65674800000000	0.11230300000000	0.00000000000000	0.08736900000000	15.55286300000000	256.06617100000000	5.03140200000000	0.41275300000000	0.00000000000000	-0.11525800000000	0.00000000000000	17.46239100000000	0.00000000000000	0.00000000000000	9.41772900000000	0.00000000000000	
24.11991200000000	-43.95884800000000	635.93351800000005	38.70819300000000	0.11209700000000	0.00000000000000	0.08715400000000	17.24962700000000	263.70301200000000	4.22528800000000	0.41306800000000	0.00000000000000	-0.11551600000000	0.00000000000000	17.24857400000000	0.00000000000000	0.00000000000000	9.22951000000000	0.00000000000000	
24.12158000000000	-44.13481100000000	629.52780499999994	37.74948800000000	0.11187400000000	0.00000000000000	0.08693700000000	18.98066600000000	271.36706900000001	3.37792900000000	0.41329200000000	0.00000000000000	-0.11577500000000	0.00000000000000	17.03551000000000	0.00000000000000	0.00000000000000	9.01571900000000	0.00000000000000	
24.12323900000000	-44.31875300000000	623.02955599999996	36.78183100000000	0.11163400000000	0.00000000000000	0.08671700000000	20.74212500000000	279.05791299999999	2.49133600000000	0.41342700000000	0.00000000000000	-0.11603500000000	0.00000000000000	16.82325000000000	0.00000000000000	0.00000000000000	8.77727800000000	0.00000000000000	
